<svg id="Lager_2" data-name="Lager 2" xmlns="http://www.w3.org/2000/svg" viewBox="0 0 405.47 85.61"><defs><style>.cls-1{fill:#fff;}</style></defs><title>Rityta 1</title><rect class="cls-1" x="124.73" y="4.84" width="18.65" height="76.51"/><polygon class="cls-1" points="18.65 64.85 18.65 4.84 0 4.84 0 81.34 34.03 81.34 40.51 64.85 18.65 64.85"/><path class="cls-1" d="M100.11,81.34l-4.42-13H64.56l-4.44,13H40.51L70.57,4.84H89.63l30.72,76.5ZM68.63,54.76h23L80.07,22.41Z"/><rect class="cls-1" x="150.88" y="4.84" width="18.36" height="76.51"/><polygon class="cls-1" points="193.77 81.34 166.85 42.35 191.87 4.84 203.18 4.84 214.33 4.84 188.31 41.85 216.83 81.34 193.77 81.34"/><path class="cls-1" d="M253.09,4.62H234L210.89,63.51l12.53,17.61h.15l4.44-13h31.14l4.42,13H283.8Zm-21,49.92,11.44-32.35,11.54,32.35Z"/><path class="cls-1" d="M343.24,26.37a10.68,10.68,0,0,1-11-11.08,10.7,10.7,0,0,1,11-11.13A10.07,10.07,0,0,1,353.19,11l.13.38h-1.61l-.07-.18a8.66,8.66,0,0,0-8.4-5.49,9.19,9.19,0,0,0-9.43,9.59c0,5.62,3.88,9.54,9.43,9.54A8.67,8.67,0,0,0,351.82,19l.06-.19h1.59l-.12.38A10.17,10.17,0,0,1,343.24,26.37Z"/><path class="cls-1" d="M332.53,15.29C332.53,9,337,4.45,343.24,4.45a9.83,9.83,0,0,1,9.68,6.63h-1a8.89,8.89,0,0,0-8.66-5.67,9.46,9.46,0,0,0-9.72,9.88,9.39,9.39,0,0,0,9.72,9.82,9,9,0,0,0,8.84-6h1a9.91,9.91,0,0,1-9.84,7A10.35,10.35,0,0,1,332.53,15.29Z"/><path class="cls-1" d="M369.73,26.37a10.74,10.74,0,0,1-11.12-11.08,11.12,11.12,0,1,1,22.24,0A10.73,10.73,0,0,1,369.73,26.37Zm0-20.68a9.27,9.27,0,0,0-9.56,9.6,9.56,9.56,0,0,0,19.12,0A9.27,9.27,0,0,0,369.73,5.69Z"/><path class="cls-1" d="M358.89,15.29a10.84,10.84,0,1,1,21.68,0,10.84,10.84,0,0,1-21.68,0Zm20.68,0a9.84,9.84,0,1,0-19.68,0,9.84,9.84,0,0,0,19.68,0Z"/><polygon class="cls-1" points="403.39 26.06 389.73 7.37 389.73 26.06 388.19 26.06 388.19 4.47 389.51 4.47 403.13 23.12 403.13 4.47 404.67 4.47 404.67 26.06 403.39 26.06"/><path class="cls-1" d="M404.38,4.75v21h-.84L389.44,6.5V25.77h-1v-21h.89L403.42,24V4.75Z"/><path class="cls-1" d="M339.82,53.93c-4.58,0-7.66-2.69-7.66-6.71v-.28h1.57v.28c0,3.15,2.39,5.18,6.09,5.18,3.33,0,5.65-1.92,5.65-4.66,0-3.09-2.7-3.69-5.83-4.38-3.31-.73-7-1.54-7-5.68,0-3.54,2.76-5.83,7-5.83,4.08,0,6.83,2.46,6.83,6.13v.29h-1.55V38c0-2.8-2.08-4.61-5.3-4.61s-5.47,1.68-5.47,4.28c0,3,2.69,3.53,5.81,4.21,3.33.75,7.06,1.58,7.06,5.87C347,51.38,344.07,53.93,339.82,53.93Z"/><path class="cls-1" d="M332.44,47.22h1c0,3.31,2.55,5.46,6.38,5.46,3.49,0,5.93-2,5.93-4.94,0-3.33-2.95-4-6.09-4.67s-6.76-1.49-6.76-5.39c0-3.37,2.67-5.55,6.76-5.55s6.54,2.32,6.54,5.85h-1c0-3-2.25-4.89-5.59-4.89s-5.76,1.79-5.76,4.56c0,3.18,3,3.82,6.07,4.5,3.33.74,6.81,1.53,6.81,5.58,0,3.58-2.89,5.92-6.94,5.92C335.39,53.65,332.44,51.1,332.44,47.22Z"/><path class="cls-1" d="M360.19,54A8,8,0,0,1,352,45.65V32.1h1.56V45.6c0,4,2.71,6.82,6.6,6.82s6.58-2.8,6.58-6.82V32.1h1.56V45.65A8,8,0,0,1,360.19,54Z"/><path class="cls-1" d="M352.32,45.65V32.38h1V45.6a6.87,6.87,0,1,0,13.74,0V32.38h1V45.65a7.87,7.87,0,1,1-15.73,0Z"/><polygon class="cls-1" points="375.94 53.69 375.94 32.1 377.49 32.1 377.49 52.18 387.76 52.18 387.76 53.69 375.94 53.69"/><path class="cls-1" d="M387.48,52.46v.94H376.23v-21h1V52.46Z"/><polygon class="cls-1" points="396.42 53.69 396.42 33.6 389.56 33.6 389.56 32.1 404.82 32.1 404.82 33.6 397.96 33.6 397.96 53.69 396.42 53.69"/><path class="cls-1" d="M404.54,33.32h-6.86V53.4h-1V33.32h-6.86v-.94h14.7Z"/><rect class="cls-1" x="333.81" y="59.73" width="1.55" height="21.59"/><path class="cls-1" d="M334.09,60h1V81h-1Z"/><polygon class="cls-1" points="369.46 81.31 353.79 62.63 353.79 81.31 352.26 81.31 352.26 59.73 353.58 59.73 369.2 78.38 369.2 59.73 370.73 59.73 370.73 81.31 369.46 81.31"/><path class="cls-1" d="M394.86,81.58c-6.24,0-11.77-4.64-11.77-11s5.62-11.08,11.75-11.08c5,0,9.33,3.21,10.26,7.62l.07.35h-1.58l0-.22c-.88-3.66-4.45-6.21-8.68-6.21-5.34,0-10.21,4-10.21,9.54s4.79,9.51,10.21,9.51a8.62,8.62,0,0,0,8.95-7.65H393.56V70.89h11.91v.29C405.24,77.31,400.88,81.58,394.86,81.58Z"/><path class="cls-1" d="M405.17,71.17c-.21,6-4.44,10.13-10.31,10.13-6.17,0-11.49-4.55-11.49-10.76s5.46-10.79,11.47-10.79c4.92,0,9.07,3.09,10,7.39h-1c-.9-3.75-4.6-6.42-8.95-6.42-5.48,0-10.49,4.14-10.49,9.82s4.92,9.79,10.49,9.79a8.91,8.91,0,0,0,9.27-8.21H393.84v-1Z"/><rect class="cls-1" x="303.38" width="1.55" height="85.61"/><path class="cls-1" d="M303.66.28h1v85h-1Z"/></svg>