<svg id="Lager_1" data-name="Lager 1" xmlns="http://www.w3.org/2000/svg" viewBox="0 0 101.54 101.53"><defs><style>.cls-1{fill:#a0a6bc;}</style></defs><title>ecommerce-icon-search</title><path class="cls-1" d="M60.64,24.9a25.33,25.33,0,0,0-11.83-6.67A4,4,0,1,0,46.9,26,17.43,17.43,0,0,1,55,30.56a17.14,17.14,0,0,1,5,12.21,4,4,0,1,0,8,0A25.11,25.11,0,0,0,60.64,24.9Z" transform="translate(-0.02 0)"/><path class="cls-1" d="M100.38,94.71,75.71,70.05a42.8,42.8,0,1,0-5.66,5.65l24.67,24.66a4,4,0,0,0,5.66-5.66ZM42.78,77.54A34.77,34.77,0,1,1,67.36,67.36,34.77,34.77,0,0,1,42.78,77.54Z" transform="translate(-0.02 0)"/></svg>