<svg id="Lager_1" data-name="Lager 1" xmlns="http://www.w3.org/2000/svg" viewBox="0 0 31.22 25.51"><defs><style>.cls-1{fill:#a0a6bc;}</style></defs><title>mobile-icon-menu</title><path class="cls-1" d="M30.52,2.3H.54A1.54,1.54,0,0,1,0,1.13,1.6,1.6,0,0,1,.54,0h30a1.39,1.39,0,0,1,.68,1.13A1.33,1.33,0,0,1,30.52,2.3Z" transform="translate(0 0)"/><path class="cls-1" d="M30.52,13.61H.54a1.48,1.48,0,0,1-.2-2.1,1.89,1.89,0,0,1,.2-.2h30a1.39,1.39,0,0,1,.68,1.13A1.33,1.33,0,0,1,30.52,13.61Z" transform="translate(0 0)"/><path class="cls-1" d="M30.52,25.51H.54a1.48,1.48,0,0,1-.2-2.1,1.89,1.89,0,0,1,.2-.2h30a1.39,1.39,0,0,1,.68,1.13A1.33,1.33,0,0,1,30.52,25.51Z" transform="translate(0 0)"/></svg>